<svg xmlns="http://www.w3.org/2000/svg" width="441.704" height="481.007" viewBox="0 0 441.704 481.007"><defs><style>.a{fill:#e0e0e2;}.b{fill:#c6c5cb;}.c{fill:#d8d8da;}.d{fill:#acabb1;}.e{fill:#898890;}.f{fill:#24a5fb;}.g{fill:#1387d5;}.h{fill:#1591e4;}.i{fill:#2487ff;}.j{fill:#0660c8;}.k{fill:#fed322;}</style></defs><g transform="translate(-20.918)"><path class="a" d="M20.918,347.168,241.743,474.693,462.622,347.168,241.939,219.757Z" transform="translate(0 -13.302)"/><path class="b" d="M476.85,355.377v19.617L255.971,502.519V482.9Z" transform="translate(-14.228 -21.512)"/><path class="c" d="M20.918,355.377v19.617L241.743,502.519V482.9Z" transform="translate(0 -21.512)"/><path class="d" d="M255.971,454.437l186.9-107.908V209.212l-186.9,107.893Z" transform="translate(-14.228 -12.664)"/><path class="b" d="M57.084,209.212V346.529L243.932,454.437V317.105Z" transform="translate(-2.189 -12.664)"/><path class="c" d="M39,191.187V210.8L242.837,328.52,446.729,210.8V191.187L242.863,73.487Z" transform="translate(-1.095 -4.448)"/><path class="a" d="M39,191.187l203.837,117.7,203.892-117.7L242.863,73.487Z" transform="translate(-1.095 -4.448)"/><path class="e" d="M75.167,192.452l169.859,98.1,169.914-98.1L245.053,94.368Z" transform="translate(-3.284 -5.712)"/><path class="b" d="M92.142,202.268l152.884-88.3.026-19.6L75.167,192.452Z" transform="translate(-3.284 -5.712)"/><path class="c" d="M425.885,192.452l-17,9.816-152.911-88.3.026-19.6" transform="translate(-14.228 -5.712)"/><path class="f" d="M195.163,447.1l-.01-137.312-101.9-59.215V387.883l16.987,9.808-.01-117.324,67.947,39.23v117.7Z" transform="translate(-4.379 -15.168)"/><g transform="translate(105.85 265.198)"><path class="g" d="M201.722,313.627l.026,137.3,16.97-9.8V323.409Z" transform="translate(-116.794 -284.183)"/><path class="g" d="M111.332,399.61l16.989-9.794V292.1l-17-9.816Z" transform="translate(-111.322 -282.286)"/></g><path class="h" d="M167.737,367.212c0-19.609-5.556-38.736-12.359-42.5s-12.367,9.193-12.367,28.8v46.1l24.735,14.3Z" transform="translate(-7.391 -19.616)"/><path class="f" d="M165.433,375.979c0-15.7-4.449-31.02-9.9-34.038s-9.9,7.363-9.9,23.067V401.93l19.809,11.456Z" transform="translate(-7.549 -20.667)"/><g transform="translate(63.061 245.126)"><path class="i" d="M245.848,369.037v30.247l-17.323-9.813.017-28.221a6.361,6.361,0,0,1,9.447-5.559h0A15.259,15.259,0,0,1,245.848,369.037Z" transform="translate(-75.628 -266.608)"/><path class="i" d="M83.1,275.074v30.247l-17.323-9.813.017-28.221a6.361,6.361,0,0,1,9.447-5.559h0A15.258,15.258,0,0,1,83.1,275.074Z" transform="translate(-65.776 -260.921)"/><path class="i" d="M274.083,364.031v30.247l17.323-10-.017-28.035a6.361,6.361,0,0,0-9.447-5.559h0A15.264,15.264,0,0,0,274.083,364.031Z" transform="translate(-78.385 -266.305)"/><path class="i" d="M310.25,343.151V373.4l17.323-10-.017-28.035a6.361,6.361,0,0,0-9.447-5.559h0A15.258,15.258,0,0,0,310.25,343.151Z" transform="translate(-80.575 -265.042)"/><path class="i" d="M346.416,322.27v30.247l17.323-10-.017-28.038a6.361,6.361,0,0,0-9.447-5.559h0A15.263,15.263,0,0,0,346.416,322.27Z" transform="translate(-82.764 -263.777)"/><path class="i" d="M382.583,301.389v30.247l17.323-10-.017-28.037a6.361,6.361,0,0,0-9.447-5.559h0A15.261,15.261,0,0,0,382.583,301.389Z" transform="translate(-84.953 -262.513)"/><path class="i" d="M418.749,280.508v30.247l17.323-9.995-.017-28.039a6.361,6.361,0,0,0-9.447-5.559h0A15.264,15.264,0,0,0,418.749,280.508Z" transform="translate(-87.142 -261.25)"/></g><path class="a" d="M116.238,410.772l-8.536,4.7,50.887,29.524,8.437-4.9Z" transform="translate(-5.253 -24.865)"/><path class="b" d="M107.7,415.773v9.851L158.575,455l.014-9.7Z" transform="translate(-5.253 -25.168)"/><path class="a" d="M107.231,426.373l-8.545,4.7,50.887,29.525,8.447-4.9Z" transform="translate(-4.708 -25.809)"/><path class="b" d="M98.686,431.372V441.3l50.873,29.372.014-9.778Z" transform="translate(-4.708 -26.112)"/><path class="d" d="M161.321,446.883l-.007,9.764-8.464,4.892-.014,9.778,8.461-4.9.009-.079v.093l8.451-4.9V441.986Z" transform="translate(-7.985 -26.755)"/><path class="b" d="M355.366,148.942v-.064h0c.131-15.615-10.034-31.22-30.537-43.06-41.078-23.717-108.752-23.717-150.386,0-20.832,11.867-31.342,27.519-31.493,43.172v48.446c-.156,15.634,10.023,31.27,30.579,43.138,41.131,23.747,108.8,23.747,150.386,0,20.781-11.868,31.279-27.5,31.453-43.138h0v-.014C355.366,197.418,355.366,148.951,355.366,148.942Z" transform="translate(-7.387 -5.329)"/><path class="a" d="M173.526,192.118c-41.131-23.747-40.719-62.58.915-86.3s109.307-23.717,150.386,0,40.667,62.551-.915,86.3S214.655,215.864,173.526,192.118Z" transform="translate(-7.387 -5.329)"/><path class="h" d="M342.9,144.976c-.051,13.76-9.242,27.539-27.522,37.97-36.372,20.777-95.579,20.777-131.56,0-17.685-10.21-26.588-23.6-26.74-37.053-.017-.238-.017-.476-.017-.7a92.912,92.912,0,0,1,185.822-.73C342.9,144.636,342.9,144.806,342.9,144.976Z" transform="translate(-8.241 -3.165)"/><path class="f" d="M315.413,130.155c-.039,10.608-7.124,21.227-21.214,29.267-28.037,16.015-73.674,16.015-101.409,0-13.632-7.87-20.494-18.19-20.611-28.561-.013-.183-.013-.367-.013-.537a71.619,71.619,0,0,1,143.235-.563C315.413,129.894,315.413,130.025,315.413,130.155Z" transform="translate(-9.155 -3.554)"/><path class="j" d="M255.718,28.031,251.35,61.579a2.128,2.128,0,0,0,1.258,1.774,6.891,6.891,0,0,0,6.185,0,2.187,2.187,0,0,0,1.294-1.774h0Z" transform="translate(-13.949 -1.697)"/><g transform="translate(229.846)"><path class="k" d="M247.74,13.167A12.968,12.968,0,0,1,259.211.288a13.166,13.166,0,1,0-2.737,26.045,13.257,13.257,0,0,0,2.737-.288A12.968,12.968,0,0,1,247.74,13.167Z" transform="translate(-243.308)"/><path class="k" d="M257,1.523l5.225,7.286,8.544-2.719-5.315,7.221,5.225,7.287-8.51-2.823L256.859,25l.054-8.965L248.4,13.207l8.544-2.719Z" transform="translate(-243.616 -0.092)"/></g><path class="b" d="M255.971,316.473V336.1L459.863,218.388V198.771Z" transform="translate(-14.228 -12.032)"/></g></svg>